<svg xmlns="http://www.w3.org/2000/svg" width="1024" height="1024" viewBox="0 0 1024 1024">
<defs><linearGradient id="bg" x2="1" y2="1"><stop stop-color="#365b47"/><stop offset="1" stop-color="#0e2826"/></linearGradient><linearGradient id="gold" x2="0" y2="1"><stop stop-color="#f3dc9d"/><stop offset="1" stop-color="#ae8247"/></linearGradient></defs>
<path fill="url(#bg)" d="M0 0h1024v1024H0z"/>
<rect x="78" y="78" width="868" height="868" rx="190" fill="none" stroke="#cfb075" stroke-width="9"/>
<path d="M256 738V445h78v-63h67v63h223v-63h67v63h77v293H256Z" fill="url(#gold)"/>
<path d="M389 445c0-80 47-129 123-174 76 45 123 94 123 174H389Z" fill="url(#gold)"/>
<path d="M512 218v59m-38-52h76" stroke="#ecd293" stroke-width="15" stroke-linecap="round"/>
<path d="M454 738V618a58 58 0 0 1 116 0v120Z" fill="#1d3a30"/>
<path d="M309 516v64m406-64v64M381 516v64m262-64v64" stroke="#254034" stroke-width="24"/>
<path d="M232 750h560M279 788h466" stroke="#d8b577" stroke-width="17" stroke-linecap="round"/>
</svg>
